<?xml version="1.0" encoding="UTF-8"?>
<svg id="Camada_1" data-name="Camada 1" xmlns="http://www.w3.org/2000/svg" viewBox="0 0 387.78 403.21">
  <defs>
    <style>
      .cls-1 {
        fill: #3ab22c;
      }

      .cls-1, .cls-2, .cls-3, .cls-4, .cls-5, .cls-6, .cls-7, .cls-8, .cls-9, .cls-10, .cls-11, .cls-12, .cls-13, .cls-14, .cls-15, .cls-16, .cls-17 {
        stroke-width: 0px;
      }

      .cls-2 {
        opacity: .8;
      }

      .cls-2, .cls-3, .cls-5, .cls-6, .cls-7, .cls-10, .cls-13 {
        isolation: isolate;
      }

      .cls-2, .cls-3, .cls-5, .cls-7, .cls-10, .cls-11, .cls-13 {
        fill: #fff;
      }

      .cls-3 {
        opacity: .4;
      }

      .cls-4 {
        fill: #81d916;
      }

      .cls-5 {
        opacity: .7;
      }

      .cls-6, .cls-13 {
        opacity: .2;
      }

      .cls-18 {
        fill: none;
        stroke: #fff;
        stroke-linecap: round;
        stroke-linejoin: round;
      }

      .cls-7 {
        opacity: .3;
      }

      .cls-8 {
        fill: #f5f5f5;
      }

      .cls-9 {
        fill: #f8ba37;
      }

      .cls-10 {
        opacity: .5;
      }

      .cls-12 {
        fill: #2e353a;
      }

      .cls-14 {
        fill: #ffb573;
      }

      .cls-15 {
        fill: #263238;
      }

      .cls-16 {
        fill: #f89737;
      }

      .cls-17 {
        fill: #ed893e;
      }
    </style>
  </defs>
  <g id="freepik--Shadow--inject-57">
    <ellipse id="freepik--path--inject-57" class="cls-8" cx="193.89" cy="391.89" rx="193.89" ry="11.32"/>
  </g>
  <g id="freepik--Books--inject-57">
    <path class="cls-1" d="M174.02,389.27c.34,1.05-.23,2.18-1.28,2.52-.23.08-.48.11-.72.1H32.72c-4.35,0-4.35-28.33,0-28.33h139.34c1.1-.05,2.04.8,2.09,1.9.01.24-.02.48-.09.71-1.74,5.4-1.74,17.71-.04,23.1Z"/>
    <path class="cls-2" d="M173.82,366.87h-84.53c-3.33,0-3.33,21.71,0,21.71h84.53c-1.43-5.45-1.43-16.27,0-21.71Z"/>
    <path class="cls-6" d="M85.08,389.27c.34,1.05-.23,2.18-1.28,2.52-.23.08-.48.11-.72.1h-50.36c-4.35,0-4.35-28.33,0-28.33h50.4c1.1-.05,2.04.8,2.09,1.9.01.24-.02.48-.09.71-1.74,5.4-1.74,17.71-.04,23.1Z"/>
    <path class="cls-4" d="M54.2,363.56h-11.51c-4.35,0-4.35,28.33,0,28.33h11.51c-4.31,0-4.31-28.33,0-28.33Z"/>
    <path class="cls-4" d="M63.27,363.56h-4.52c-4.35,0-4.35,28.33,0,28.33h4.52c-4.38,0-4.38-28.33,0-28.33Z"/>
    <path class="cls-15" d="M24.6,361.21c-.48,1.16.7,2.35,2.3,2.35h125.28c5.11,0,5.11-25.47,0-25.47H26.89c-1.6,0-2.78,1.18-2.3,2.35,2,4.85,2,15.92.01,20.77Z"/>
    <path class="cls-6" d="M24.6,361.21c-.48,1.16.7,2.35,2.3,2.35h61.43c5.11,0,5.11-25.47,0-25.47H26.89c-1.6,0-2.78,1.18-2.3,2.35,2,4.85,2,15.92.01,20.77Z"/>
    <path class="cls-2" d="M24.82,341.06h61c3.91,0,3.91,19.52,0,19.52H24.82c1.68-4.93,1.68-14.62,0-19.52Z"/>
    <path class="cls-13" d="M106.08,343.77c-.38-1.13.72-2.23,2.24-2.23h35.07c3.72,0,3.72,18.56,0,18.56h-35.07c-1.52,0-2.62-1.09-2.24-2.22,1.15-4.54.62-9.43,0-14.11Z"/>
    <path class="cls-9" d="M359.62,349.84c.4,1.22-.27,2.54-1.49,2.94-.19.06-.38.1-.58.11h-147.2c-4.6,0-4.6-33,0-33h147.2c1.28.09,2.25,1.2,2.16,2.48-.01.17-.04.35-.09.52-1.79,6.35-1.79,20.68,0,26.95Z"/>
    <path class="cls-10" d="M359.62,349.84c.4,1.22-.27,2.54-1.49,2.94-.19.06-.38.1-.58.11h-147.2c-4.6,0-4.6-33,0-33h147.2c1.28.09,2.25,1.2,2.16,2.48-.01.17-.04.35-.09.52-1.79,6.35-1.79,20.68,0,26.95Z"/>
    <path class="cls-2" d="M359.42,323.77h-89.31c-3.52,0-3.52,25.26,0,25.26h89.31c-1.53-6.33-1.53-18.92,0-25.26Z"/>
    <path class="cls-9" d="M265.66,349.84c.4,1.22-.27,2.54-1.49,2.94-.19.06-.38.1-.58.11h-53.24c-4.6,0-4.6-33,0-33h53.24c1.28.09,2.25,1.2,2.16,2.48-.01.17-.04.35-.09.52-1.77,6.35-1.77,20.68,0,26.95Z"/>
    <path class="cls-10" d="M244.06,322.36c.37-.91-.07-1.95-.98-2.32-.16-.07-.34-.11-.52-.12h-20.3c-4.6,0-4.6,33,0,33h20.3c.98-.09,1.71-.96,1.62-1.94-.02-.17-.06-.34-.12-.51-2.05-6.13-2.05-22,0-28.11Z"/>
    <path class="cls-16" d="M349.06,388.26c.41,1.52-.49,3.09-2.02,3.51-.3.08-.61.11-.92.09h-152.94c-6.53,0-6.54-39,0-39h153c1.58-.1,2.93,1.1,3.03,2.68.02.31-.01.62-.09.92-2.61,7.43-2.6,24.38-.06,31.8Z"/>
    <path class="cls-13" d="M349.06,388.26c.41,1.52-.49,3.09-2.02,3.51-.3.08-.61.11-.92.09h-152.94c-6.53,0-6.54-39,0-39h153c1.58-.1,2.93,1.1,3.03,2.68.02.31-.01.62-.09.92-2.61,7.43-2.6,24.38-.06,31.8Z"/>
    <path class="cls-2" d="M348.76,357.42h-92.47c-5,0-5,29.88,0,29.88h92.48c-2.14-7.49-2.14-22.38-.01-29.88Z"/>
    <path class="cls-16" d="M249.97,388.28c.42,1.52-.47,3.09-1.99,3.5-.31.08-.62.12-.94.1h-53.86c-6.53,0-6.54-39,0-39h53.86c1.58-.1,2.93,1.1,3.03,2.68.02.31-.01.62-.09.92-2.55,7.43-2.55,24.37-.01,31.8Z"/>
    <path class="cls-10" d="M217.71,354.24c.25-.43.11-.98-.32-1.23-.16-.09-.35-.14-.54-.12h-9.15c-6.52,0-6.52,39,0,39h9.19c.49.05.93-.32.98-.81.02-.19-.02-.37-.12-.54-3.97-6.03-3.97-30.28-.04-36.3Z"/>
    <path class="cls-10" d="M231.99,354.24c.25-.44.1-.99-.34-1.24-.16-.09-.34-.13-.52-.12h-9.15c-6.52,0-6.52,39,0,39h9.15c.5.04.93-.33.97-.82.01-.18-.03-.37-.12-.53-3.92-6.02-3.92-30.28,0-36.29Z"/>
    <path class="cls-16" d="M347.56,299.17c-.18-2.78-.83-5.5-1.93-8.06l.9-.44c1.14,2.66,1.82,5.51,2,8.4l-.97.1Z"/>
    <rect class="cls-16" x="316.45" y="286.78" width="24.84" height="1"/>
    <path class="cls-16" d="M179.4,317.19c-.51,1.36.74,2.73,2.43,2.73h159.46c5.39,0,5.39-29.64,0-29.64h-159.46c-1.69,0-2.94,1.38-2.43,2.74,2.1,5.63,2.1,18.52,0,24.17Z"/>
    <path class="cls-6" d="M179.4,317.19c-.51,1.36.74,2.73,2.43,2.73h92c5.4,0,5.4-29.64,0-29.64h-92c-1.69,0-2.94,1.38-2.43,2.74,2.1,5.63,2.1,18.52,0,24.17Z"/>
    <path class="cls-2" d="M179.64,293.75h91.52c4.14,0,4.14,22.71,0,22.71h-91.52c1.77-5.7,1.77-17.01,0-22.71Z"/>
    <path class="cls-13" d="M292.58,296.89c-.4-1.31.76-2.58,2.36-2.58h37.06c3.93,0,3.93,21.59,0,21.59h-37.06c-1.6,0-2.76-1.27-2.36-2.59,1.31-4.15,1.31-12.26,0-16.42Z"/>
  </g>
  <g id="freepik--Character--inject-57">
    <path class="cls-15" d="M164.49,73.65c-4.51,4.83-15.52,0-17.2,13.3-1.82,14.34,5.08,21.23-3.83,25-14,5.85-24,29.23-4.56,38s60.84-.42,56.18-18.29-3.74-27.46,1.76-35.88c7.25-11.13,5.7-25.43-.21-30.61-9.2-8.1-21.91-2.52-32.14,8.48Z"/>
    <path class="cls-15" d="M188.55,131.18c-.16,0-.29-.11-.31-.27-.03-.16.08-.32.24-.35,0,0,.01,0,.02,0,3.86-.53,6.16-1.48,7.24-3,1.34-1.89.76-4.7,0-8.26-1.18-5.79-2.81-13.72,2.39-23.74,6.31-12.15,4-25.47-1.91-29.83-.14-.1-.17-.29-.07-.43.1-.14.3-.17.44-.07,6.16,4.51,8.54,18.19,2.09,30.62-5.09,9.82-3.49,17.63-2.33,23.33.76,3.7,1.36,6.63-.14,8.74-1.18,1.67-3.61,2.7-7.65,3.26h0Z"/>
    <path class="cls-15" d="M138.13,113.86c-.63,0-1.26-.04-1.89-.12-.17-.02-.29-.17-.27-.34,0,0,0,0,0,0,.02-.17.17-.29.34-.27,0,0,0,0,0,0,2.84.35,4.9-.07,6.29-1.29,2.6-2.29,2.64-7.08,2.67-12.63,0-6.28.09-13.39,4.16-18.24.11-.13.31-.15.44-.04.13.11.15.31.04.44-3.93,4.68-4,11.67-4,17.85,0,5.69-.07,10.61-2.88,13.09-1.39,1.11-3.14,1.67-4.91,1.56Z"/>
    <path class="cls-16" d="M236.28,290.26c-6.67-.08-9.29-.5-12.36-.45s-3.8.59-7,.45c-2.16-.09-2.17-2.66-1.34-4.42.65-1.38,1.45-2.77,2.19-4.49l8.46.62c1.14,3.22,6.8,4.6,11.76,5.74,1.97.47.96,2.58-1.71,2.55Z"/>
    <path class="cls-15" d="M192.17,167.41s22.38,19.25,45,39.67c9.56,8.65-10.49,74.6-10.49,74.6-.42,1.41-7.88-.6-9-1.71,0,0-1.14-51.19,3.71-61.5-50.16-12.68-58-37.31-58-37.31l3.6-15.28,25.18,1.53Z"/>
    <path class="cls-6" d="M166.7,187.23c2.81,3.92,6.13,7.45,9.89,10.48,5-5.85,3.6-15.3,3.6-15.3l-13.49,4.82Z"/>
    <path class="cls-15" d="M228.42,278.83c-.14,1-.38,2.77-.51,4.08-.04.44-.42.77-.86.76-3.35-.26-6.66-.84-9.9-1.72-.32-.09-.54-.38-.55-.71l-.07-3.65c0-.47.38-.85.85-.85.03,0,.06,0,.08,0l10.32,1.25c.4.04.69.41.64.81,0,.01,0,.02,0,.03Z"/>
    <path class="cls-7" d="M228.42,278.83c-.14,1-.38,2.77-.51,4.08-.04.44-.42.77-.86.76-3.35-.26-6.66-.84-9.9-1.72-.32-.09-.54-.38-.55-.71l-.07-3.65c0-.47.38-.85.85-.85.03,0,.06,0,.08,0l10.32,1.25c.4.04.69.41.64.81,0,.01,0,.02,0,.03Z"/>
    <path class="cls-16" d="M138.36,338.09c-6.78,0-9-2.55-12.79-3.25-3.2-.6-4.05-.32-6.63-.77-2.16-.38-2.33-1.86-1-4.05.87-1.51,1.6-3.1,2.2-4.74l10.28.68c1.07,2.75,3.54,8.34,7.31,9,3.55.69,3.33,3.13.63,3.13Z"/>
    <path class="cls-15" d="M190.62,167.35s-23.65,42.05-33.17,68.06c-10,27.32-25.92,72-27.07,90.55-1.7.81-7.28.5-10.28-.68,0,0-2.78-64,16.47-89.64,4.59-54.91,12.21-63.69,20.31-70.38l33.74,2.09Z"/>
    <path class="cls-15" d="M131.62,322.17c-.12,1.27-.16,2.54-.1,3.81.03.46-.32.86-.78.89-3.83.35-9.17-.88-10.86-1.3-.32-.08-.55-.37-.56-.7l-.13-3.58c0-.47.37-.86.84-.86.02,0,.05,0,.07,0l10.84.93c.41.03.71.39.68.79,0,0,0,.01,0,.02Z"/>
    <path class="cls-7" d="M131.62,322.17c-.12,1.27-.16,2.54-.1,3.81.03.46-.32.86-.78.89-3.83.35-9.17-.88-10.86-1.3-.32-.08-.55-.37-.56-.7l-.13-3.58c0-.47.37-.86.84-.86.02,0,.05,0,.07,0l10.84.93c.41.03.71.39.68.79,0,0,0,.01,0,.02Z"/>
    <path class="cls-14" d="M196.89,126.1c1,1.89,2.08,4,3.18,6,1.1,2,2.21,4,3.33,5.95,2.26,3.93,4.62,7.78,7.15,11.41l-1.36-1.21c1,.71,2.11,1.25,3.28,1.62,1.42.47,2.87.84,4.34,1.08,1.54.28,3.14.47,4.77.62s3.34.24,4.9.34h.21c1.54.09,2.72,1.41,2.63,2.96-.07,1.14-.82,2.13-1.9,2.49-1.79.59-3.62,1.06-5.47,1.38-1.86.33-3.75.54-5.64.61-2.01.08-4.02-.04-6-.36-2.24-.34-4.4-1.05-6.4-2.12-.42-.23-.78-.53-1.09-.89l-.27-.32c-1.59-1.9-3.14-3.84-4.56-5.83s-2.81-4-4.1-6-2.54-4.13-3.72-6.24-2.3-4.2-3.37-6.51c-1.22-2.84.1-6.13,2.94-7.35,2.61-1.12,5.64-.11,7.06,2.35l.09.02Z"/>
    <path class="cls-16" d="M191.37,118.03c6.53,2.15,7.59,5.08,11.17,15.9-2.38,6.49-12,9.78-12,9.78,0,0-11.36-18.5.83-25.68Z"/>
    <path class="cls-9" d="M200.31,132.11c-.37,3.58-1.29,7.85-3.22,16.24-1.5,7.12-1.52,21-3.92,21.73-4.61,2.28-16.15,1.4-36.29-4.82.64-10.4,1.85-17.46-1.61-41.32-.81-4.65,2.3-9.07,6.95-9.88.58-.1,1.16-.14,1.75-.12,1.46,0,3,.12,4.57.26,5.54.33,11.05,1.07,16.48,2.19,1.77.4,3.6.87,5.34,1.35,6.32,1.8,10.48,7.82,9.95,14.37Z"/>
    <path class="cls-14" d="M129.81,173.47l2-1.83c.76-.69,1.13-1.7,1-2.72l-.55-4.77c-.21-1.9-1.33-3.58-3-4.52l-1-.57c-3.57,2.81-5.36,8.47-5.36,8.47l-.69,1.56c-.63,1.31-.08,2.89,1.23,3.52.01,0,.02.01.04.02l3.07,1.4c1.1.47,2.38.25,3.26-.56Z"/>
    <path class="cls-14" d="M234.78,149.45l-2.56-1c-.96-.36-2.04-.24-2.89.34l-4,2.68c-1.59,1.07-2.57,2.85-2.61,4.77v1.19c4.13,1.88,10,.86,10,.86l1.7-.1c1.46-.05,2.61-1.27,2.56-2.74,0,0,0-.02,0-.02l-.16-3.37c-.09-1.2-.9-2.23-2.04-2.61Z"/>
    <path class="cls-14" d="M161.23,127.16l-1.28.59-1.4.64c-.93.45-1.85.92-2.77,1.4-1.85,1-3.65,2-5.42,3.05s-3.48,2.22-5.14,3.41-3.2,2.49-4.7,3.82l.66-.84c-.49.72-.92,1.47-1.28,2.26-.44.91-.85,1.9-1.25,2.91-.8,2-1.58,4.14-2.3,6.29s-1.45,4.33-2.16,6.51l-2.16,6.57h0c-.48,1.47-2.06,2.28-3.53,1.8-1.2-.39-1.99-1.54-1.93-2.8.11-2.41.33-4.75.6-7.11s.61-4.71,1-7.07.9-4.73,1.55-7.13c.32-1.2.67-2.4,1.11-3.66.46-1.39,1.06-2.73,1.78-4,.13-.21.27-.41.43-.59l.24-.25c1.65-1.82,3.41-3.52,5.28-5.11,1.84-1.57,3.77-3.02,5.78-4.37,1.98-1.34,4.03-2.58,6.15-3.7,1.06-.56,2.13-1.09,3.22-1.61.55-.25,1.09-.51,1.66-.75s1.09-.45,1.8-.72c2.87-1.15,6.12.25,7.27,3.12,1.12,2.8-.18,5.98-2.95,7.19l-.26.15Z"/>
    <path class="cls-9" d="M170.89,116.54c-4.9-3.51-7.88-3.89-19.74,1.26-1.41,7.46,3.21,18.41,3.21,18.41,0,0,15.78-8.22,16.53-19.67Z"/>
    <path class="cls-14" d="M172.17,95.76c.73,5.49,1.2,15.44-2.72,18.52,0,0,5.12-.09,14.91,7.92,3.67-4,1.57-5.73,1.57-5.73-5.83-2.21-5.42-6.62-4.15-10.65l-9.61-10.06Z"/>
    <path class="cls-11" d="M182.29,120.58c-3.57,0-5.38,5.19-5.38,5.19,0,0-8.58-6.84-9.75-11.65,1.14-.46,2.25-.98,3.34-1.55,0,0,10.01,5.71,11.79,8.01Z"/>
    <path class="cls-11" d="M185.71,120.45s2.7,1,3.59,5c1.83-7.62-1.74-8.82-1.74-8.82-.89-.67-2.01-.98-3.12-.88,1.51,1.05,2.04,3.03,1.27,4.7Z"/>
    <path class="cls-6" d="M176.09,99.86l5.68,6c-.31.94-.53,1.9-.67,2.88-2.24-.63-5.2-3.54-5.3-6-.08-.97.02-1.95.29-2.88Z"/>
    <path class="cls-14" d="M166.01,87.77c2,8.54,2.73,12.19,7.86,16.09,7.71,5.86,17.72,2.06,18.26-6.78.48-8-2.94-20.6-12-23-5.96-1.79-12.23,1.59-14.02,7.54-.6,2-.63,4.13-.1,6.15Z"/>
    <path class="cls-15" d="M167.68,93.91c3.14-1.54,6.47-9.11,2-12.69,3.69.69,7.92-.3,11.83-3.32,5.1-4,12.61,5.93,10.14.1-3.56-8.4-14.29-10.5-24-3.52s-9.02,15.47.03,19.43Z"/>
    <path class="cls-11" d="M165.02,92.2c-.09,0-.15-.09-.14-.18,0-.05.04-.1.08-.12,2.5-1.08,13.11-3.34,13.56-3.43.08-.02.16.02.19.1,0,0,0,.01,0,.02.01.08-.04.16-.12.18-.11,0-11,2.35-13.51,3.42h-.06Z"/>
    <path class="cls-6" d="M177.89,88.65c-1.07-.47-2.29-.5-3.38-.08,1.11.25,2.26.27,3.38.08Z"/>
    <path class="cls-6" d="M177.8,89.41c-1.05-.22-2.15.03-3,.69,1.04-.02,2.06-.25,3-.69Z"/>
    <path class="cls-15" d="M179.75,88.53c.14.73.63,1.27,1.1,1.21s.73-.69.59-1.42-.64-1.26-1.1-1.21-.73.7-.59,1.42Z"/>
    <path class="cls-15" d="M188.53,87.58c.14.72.64,1.26,1.1,1.21s.73-.7.59-1.42-.63-1.27-1.1-1.21-.73.69-.59,1.42Z"/>
    <path class="cls-15" d="M188.89,86.23l1.62-.72s-.62,1.47-1.62.72Z"/>
    <path class="cls-17" d="M186.89,88.97c.87,1.63,1.93,3.15,3.18,4.51-.69.58-1.6.82-2.49.65l-.69-5.16Z"/>
    <path class="cls-15" d="M183.74,97.36c.4.03.81.03,1.21,0,.11-.01.19-.11.17-.22,0,0,0-.01,0-.02-.02-.12-.13-.2-.25-.19-1.83.22-3.67-.39-5-1.67-.08-.08-.21-.08-.3,0,0,0,0,0,0,0-.08.08-.08.22,0,.3,1.12,1.09,2.61,1.73,4.17,1.8Z"/>
    <path class="cls-14" d="M163.98,95.42c.97,1.39,2.49,2.31,4.17,2.53,2.08.17,2.53-2.25,1.47-4.4-.95-1.93-3.18-4.36-5-3.52s-1.99,3.62-.64,5.39Z"/>
    <path class="cls-15" d="M176.94,83.02c.11,0,.22-.05.29-.14.65-.84,1.68-1.29,2.74-1.21.22.03.42-.12.46-.33,0,0,0-.02,0-.03,0-.24-.16-.45-.39-.49-1.34-.12-2.64.44-3.48,1.49-.14.2-.1.48.11.63.08.06.18.09.27.08h0Z"/>
    <path class="cls-15" d="M190.15,82.65c.11.01.22-.02.3-.09.17-.16.17-.43,0-.59,0,0,0,0,0,0-.88-1.1-2.21-1.73-3.62-1.7-.21.02-.37.21-.36.42,0,.02,0,.03,0,.05.04.23.24.4.48.39,1.11-.01,2.17.49,2.86,1.37.08.1.2.16.33.16Z"/>
    <path class="cls-11" d="M182.46,93.06c-2.11,0-3.94-2.24-4.14-5.11-.12-1.35.19-2.71.89-3.87.56-1,1.57-1.67,2.71-1.79,2.21-.15,4.15,2.14,4.36,5.11s-1.42,5.5-3.61,5.65h-.21ZM182.13,82.65h-.18c-1.04.12-1.97.73-2.48,1.65-.66,1.11-.96,2.4-.84,3.68.19,2.79,2,4.94,4,4.81s3.51-2.53,3.32-5.32-1.87-4.82-3.82-4.82Z"/>
    <path class="cls-11" d="M191.81,92.52c-2.11,0-3.95-2.23-4.15-5.1-.12-1.35.2-2.71.89-3.87.56-1,1.58-1.67,2.72-1.79,2.19-.15,4.15,2.14,4.35,5.1.12,1.35-.2,2.71-.89,3.87-.56,1-1.58,1.67-2.72,1.79h-.2ZM191.48,82.07h-.19c-1.04.12-1.97.73-2.48,1.65-.66,1.11-.95,2.4-.84,3.68.19,2.7,1.89,4.81,3.84,4.81h.18c1.05-.11,1.97-.73,2.48-1.65.66-1.1.95-2.39.84-3.67-.19-2.71-1.89-4.82-3.83-4.82Z"/>
    <path class="cls-11" d="M187.89,87.83c-.05,0-.1-.03-.13-.08-.38-.6-1.49.05-1.5.05-.07.04-.16.02-.21-.05,0,0,0,0,0,0-.05-.06-.05-.15,0-.21.06,0,1.38-.82,1.92,0,.05.06.03.15-.03.2,0,0-.01.01-.02.01,0,.03,0,.06-.03.08Z"/>
    <path class="cls-15" d="M180.14,87.18l1.61-.71s-.61,1.47-1.61.71Z"/>
  </g>
  <g id="freepik--Lightbulb--inject-76">
    <path class="cls-9" d="M229.44,38.29c-2.81-10.18-13.34-16.16-23.53-13.35s-16.16,13.34-13.35,23.53c1.55,5.63,5.59,10.24,10.97,12.52,1.28.53,2.31,1.52,2.89,2.78l.65,1.47,18.41-5-.19-1.6c-.13-1.39.26-2.77,1.09-3.89,3.48-4.73,4.6-10.79,3.06-16.46Z"/>
    <path class="cls-18" d="M213.08,65.28s-2.77-8.69-7.66-12.54l2.71-.74.21-4.17,4.43,6.41-.36-7.8,4.37,7.11.44-4,3.87-1c-2.12,4.76-2.5,10.1-1.07,15.11"/>
    <path class="cls-12" d="M216.56,63.82c-3.26.89-5.08,4.64-4.06,8.37s4.48,6,7.74,5.14,5.07-4.63,4.06-8.36-4.48-6.03-7.74-5.15Z"/>
    <path class="cls-9" d="M222.84,73.9l-6.56,1.79c-3.25.88-6.63-.89-7.76-4.06l-2.15-6.07c-.17-.48.08-1.01.56-1.18.02,0,.05-.02.07-.02l18.08-4.93c.49-.14,1,.15,1.13.64,0,.03.01.05.02.08l1.23,6.31c.64,3.31-1.37,6.55-4.62,7.44Z"/>
    <path class="cls-3" d="M222.84,73.9l-6.56,1.79c-3.25.88-6.63-.89-7.76-4.06l-2.15-6.07c-.17-.48.08-1.01.56-1.18.02,0,.05-.02.07-.02l18.08-4.93c.49-.14,1,.15,1.13.64,0,.03.01.05.02.08l1.23,6.31c.64,3.31-1.37,6.55-4.62,7.44Z"/>
    <path class="cls-9" d="M185.46,57.41c-1.79-.33-3.61-.5-5.43-.51-.91,0-1.81.04-2.71.15-.45.07-.9.12-1.33.23-.22.06-.44.09-.65.17l-.63.2-.72.23.43-.63c1.21-1.8,2.18-3.75,2.87-5.8.34-1.02.59-2.07.75-3.13.08-.53.12-1.06.14-1.59.03-.53.03-1.06,0-1.59-.04-.52-.11-1.05-.22-1.56l-.19-.76-.25-.75c-.18-.49-.39-.97-.65-1.42-.25-.46-.52-.9-.83-1.32-.31-.42-.64-.82-1-1.2l-.55-.56-.6-.52c-.39-.36-.85-.64-1.26-1s-.9-.56-1.35-.85l-1-.66,1.11-.53c.53-.26,1.09-.57,1.62-.89s1.06-.65,1.58-1c1.03-.7,2.01-1.48,2.93-2.32.45-.42.89-.85,1.32-1.3s.82-.93,1.19-1.41.73-1,1-1.51c.32-.51.61-1.04.87-1.59.26-.54.49-1.11.68-1.68l.26-.86.19-.89c.11-.59.18-1.18.2-1.78.05-1.21-.05-2.41-.32-3.59l-.2-.89-.28-.87c-.17-.59-.44-1.14-.66-1.71s-.54-1.1-.81-1.66l-1.43-3,2.74,1.76c.48.32,1,.63,1.57.92s1.1.57,1.66.82c1.12.52,2.26.97,3.44,1.33.59.17,1.18.33,1.77.46.59.13,1.19.23,1.79.3.59.08,1.19.11,1.79.11.59,0,1.18-.04,1.77-.12l.86-.15.85-.23c.55-.18,1.08-.4,1.6-.66.26-.12.5-.27.74-.43.25-.15.49-.31.71-.5.46-.36.89-.74,1.3-1.16.4-.43.77-.89,1.11-1.37.35-.48.67-.99.95-1.52.31-.51.52-1.09.79-1.63s.43-1.14.65-1.71l1.25-3.28.62,3.42c.1.56.25,1.11.43,1.65.53,1.67,1.33,3.24,2.38,4.65.69.92,1.51,1.73,2.43,2.42.45.35.94.65,1.44.92.5.27,1.03.51,1.57.7.54.19,1.1.34,1.66.46.57.11,1.15.2,1.73.24.58.03,1.17.03,1.75,0,.59,0,1.18-.08,1.77-.13s1.18-.19,1.76-.28l1.75-.42,1.73-.52,1.71-.61,2.37-.85-1.36,2.11c-.25.37-.5.82-.73,1.25s-.44.87-.64,1.33c-.39.9-.7,1.83-.93,2.78-.22.94-.33,1.9-.33,2.87.01.95.18,1.89.49,2.78l.27.66.34.73c.24.41.52.79.83,1.15.31.36.64.69,1,1,.37.32.76.62,1.17.89.41.28.83.53,1.26.76.43.24.89.42,1.34.64l1.4.53,1.44.45,1,.32-.84.65c-.57.44-1.1.92-1.59,1.44-.5.52-.96,1.08-1.38,1.66-.23.29-.41.6-.61.9-.19.3-.37.62-.52.94-.18.32-.32.65-.44,1-.14.32-.25.66-.33,1-.07.35-.19.69-.23,1l-.1,1.07c0,.36,0,.72.06,1.08.02.36.08.71.18,1.06.07.34.16.68.28,1l.41,1c.14.35.31.68.51,1l.56,1,.21.35h-.39c-1.48,0-2.95.2-4.38.58-.72.19-1.41.46-2.06.81-.16.09-.32.18-.47.29-.16.09-.31.2-.45.33-.15.11-.29.23-.42.36l-.39.41.37-.43c.12-.14.25-.27.4-.39.14-.13.28-.25.44-.36.15-.1.3-.22.46-.31.65-.39,1.33-.7,2.05-.94,1.44-.47,2.94-.73,4.45-.79l-.17.35-.62-1c-.23-.31-.42-.65-.58-1l-.47-1c-.15-.35-.26-.72-.34-1.1-.12-.37-.21-.75-.24-1.13,0-.38-.09-.77-.1-1.15v-1.17c0-.38.14-.76.2-1.14.08-.38.18-.76.32-1.12.11-.37.25-.73.43-1.08.15-.34.32-.68.52-1,.18-.34.38-.68.6-1,.43-.64.91-1.24,1.43-1.81.52-.58,1.09-1.12,1.69-1.61l.19,1-1.51-.43-1.49-.53c-.49-.21-1-.4-1.46-.65-.48-.23-.94-.5-1.39-.79-.46-.29-.89-.6-1.31-.95-.41-.35-.79-.73-1.14-1.14-.37-.41-.71-.86-1-1.33l-.41-.72-.33-.77c-.38-1.02-.6-2.09-.64-3.18-.04-1.09.06-2.18.29-3.25.22-1.05.54-2.08.94-3.07.2-.5.42-1,.66-1.46s.49-.94.8-1.43l1,1.26-1.78.65-1.81.56c-.62.17-1.24.31-1.86.46s-1.25.24-1.89.31c-.64.09-1.28.14-1.93.16-.67.04-1.33.04-2,0-.65-.05-1.3-.13-1.94-.26-.65-.13-1.28-.3-1.91-.51-.62-.22-1.23-.49-1.82-.79-.59-.31-1.16-.66-1.69-1.06-1.07-.79-2.02-1.72-2.82-2.77-.8-1.04-1.47-2.16-2-3.36-.27-.59-.51-1.2-.71-1.82-.22-.63-.39-1.28-.52-1.93l1.87.14c-.23.62-.44,1.25-.69,1.86-.26.62-.54,1.22-.86,1.81-.29.6-.63,1.18-1,1.73-.39.56-.82,1.09-1.28,1.6-.48.5-.99.96-1.54,1.38-.27.22-.56.41-.86.58-.29.19-.59.37-.9.52-.62.31-1.27.57-1.93.78l-1,.25-1,.18c-.66.08-1.33.12-2,.11-.67,0-1.34-.04-2-.13-.67-.08-1.34-.2-2-.35-.65-.14-1.29-.32-1.92-.52-1.25-.39-2.48-.87-3.66-1.44-.6-.27-1.18-.57-1.75-.88s-1.13-.64-1.72-1l1.31-1.19c.29.6.6,1.18.86,1.8.27.61.5,1.24.71,1.87l.3,1,.22,1c.13.66.23,1.33.3,2,.04.67.04,1.33,0,2-.03.67-.11,1.34-.24,2l-.22,1-.3,1c-.22.64-.48,1.27-.78,1.88-.29.61-.63,1.19-1,1.75-.37.55-.76,1.07-1.18,1.58-.43.52-.87,1-1.33,1.49s-.95.92-1.44,1.36c-1,.86-2.05,1.65-3.15,2.37-.55.36-1.11.69-1.68,1-.58.32-1.15.62-1.78.9l.07-1.19c.47.32,1,.61,1.42.94s.92.67,1.33,1.07l.64.58.59.62c.38.43.75.87,1.08,1.34.33.48.63.97.89,1.49.27.51.49,1.04.68,1.58l.25.83.18.84c.11.56.17,1.14.2,1.71.07,2.27-.32,4.52-1.16,6.63-.8,2.09-1.87,4.06-3.19,5.86l-.29-.4.67-.19c.23-.07.46-.1.69-.15.45-.1.91-.13,1.37-.19.92-.05,1.84-.05,2.76,0,1.83.1,3.65.35,5.43.76Z"/>
    <path class="cls-5" d="M185.46,57.41c-1.79-.33-3.61-.5-5.43-.51-.91,0-1.81.04-2.71.15-.45.07-.9.12-1.33.23-.22.06-.44.09-.65.17l-.63.2-.72.23.43-.63c1.21-1.8,2.18-3.75,2.87-5.8.34-1.02.59-2.07.75-3.13.08-.53.12-1.06.14-1.59.03-.53.03-1.06,0-1.59-.04-.52-.11-1.05-.22-1.56l-.19-.76-.25-.75c-.18-.49-.39-.97-.65-1.42-.25-.46-.52-.9-.83-1.32-.31-.42-.64-.82-1-1.2l-.55-.56-.6-.52c-.39-.36-.85-.64-1.26-1s-.9-.56-1.35-.85l-1-.66,1.11-.53c.53-.26,1.09-.57,1.62-.89s1.06-.65,1.58-1c1.03-.7,2.01-1.48,2.93-2.32.45-.42.89-.85,1.32-1.3s.82-.93,1.19-1.41.73-1,1-1.51c.32-.51.61-1.04.87-1.59.26-.54.49-1.11.68-1.68l.26-.86.19-.89c.11-.59.18-1.18.2-1.78.05-1.21-.05-2.41-.32-3.59l-.2-.89-.28-.87c-.17-.59-.44-1.14-.66-1.71s-.54-1.1-.81-1.66l-1.43-3,2.74,1.76c.48.32,1,.63,1.57.92s1.1.57,1.66.82c1.12.52,2.26.97,3.44,1.33.59.17,1.18.33,1.77.46.59.13,1.19.23,1.79.3.59.08,1.19.11,1.79.11.59,0,1.18-.04,1.77-.12l.86-.15.85-.23c.55-.18,1.08-.4,1.6-.66.26-.12.5-.27.74-.43.25-.15.49-.31.71-.5.46-.36.89-.74,1.3-1.16.4-.43.77-.89,1.11-1.37.35-.48.67-.99.95-1.52.31-.51.52-1.09.79-1.63s.43-1.14.65-1.71l1.25-3.28.62,3.42c.1.56.25,1.11.43,1.65.53,1.67,1.33,3.24,2.38,4.65.69.92,1.51,1.73,2.43,2.42.45.35.94.65,1.44.92.5.27,1.03.51,1.57.7.54.19,1.1.34,1.66.46.57.11,1.15.2,1.73.24.58.03,1.17.03,1.75,0,.59,0,1.18-.08,1.77-.13s1.18-.19,1.76-.28l1.75-.42,1.73-.52,1.71-.61,2.37-.85-1.36,2.11c-.25.37-.5.82-.73,1.25s-.44.87-.64,1.33c-.39.9-.7,1.83-.93,2.78-.22.94-.33,1.9-.33,2.87.01.95.18,1.89.49,2.78l.27.66.34.73c.24.41.52.79.83,1.15.31.36.64.69,1,1,.37.32.76.62,1.17.89.41.28.83.53,1.26.76.43.24.89.42,1.34.64l1.4.53,1.44.45,1,.32-.84.65c-.57.44-1.1.92-1.59,1.44-.5.52-.96,1.08-1.38,1.66-.23.29-.41.6-.61.9-.19.3-.37.62-.52.94-.18.32-.32.65-.44,1-.14.32-.25.66-.33,1-.07.35-.19.69-.23,1l-.1,1.07c0,.36,0,.72.06,1.08.02.36.08.71.18,1.06.07.34.16.68.28,1l.41,1c.14.35.31.68.51,1l.56,1,.21.35h-.39c-1.48,0-2.95.2-4.38.58-.72.19-1.41.46-2.06.81-.16.09-.32.18-.47.29-.16.09-.31.2-.45.33-.15.11-.29.23-.42.36l-.39.41.37-.43c.12-.14.25-.27.4-.39.14-.13.28-.25.44-.36.15-.1.3-.22.46-.31.65-.39,1.33-.7,2.05-.94,1.44-.47,2.94-.73,4.45-.79l-.17.35-.62-1c-.23-.31-.42-.65-.58-1l-.47-1c-.15-.35-.26-.72-.34-1.1-.12-.37-.21-.75-.24-1.13,0-.38-.09-.77-.1-1.15v-1.17c0-.38.14-.76.2-1.14.08-.38.18-.76.32-1.12.11-.37.25-.73.43-1.08.15-.34.32-.68.52-1,.18-.34.38-.68.6-1,.43-.64.91-1.24,1.43-1.81.52-.58,1.09-1.12,1.69-1.61l.19,1-1.51-.43-1.49-.53c-.49-.21-1-.4-1.46-.65-.48-.23-.94-.5-1.39-.79-.46-.29-.89-.6-1.31-.95-.41-.35-.79-.73-1.14-1.14-.37-.41-.71-.86-1-1.33l-.41-.72-.33-.77c-.38-1.02-.6-2.09-.64-3.18-.04-1.09.06-2.18.29-3.25.22-1.05.54-2.08.94-3.07.2-.5.42-1,.66-1.46s.49-.94.8-1.43l1,1.26-1.78.65-1.81.56c-.62.17-1.24.31-1.86.46s-1.25.24-1.89.31c-.64.09-1.28.14-1.93.16-.67.04-1.33.04-2,0-.65-.05-1.3-.13-1.94-.26-.65-.13-1.28-.3-1.91-.51-.62-.22-1.23-.49-1.82-.79-.59-.31-1.16-.66-1.69-1.06-1.07-.79-2.02-1.72-2.82-2.77-.8-1.04-1.47-2.16-2-3.36-.27-.59-.51-1.2-.71-1.82-.22-.63-.39-1.28-.52-1.93l1.87.14c-.23.62-.44,1.25-.69,1.86-.26.62-.54,1.22-.86,1.81-.29.6-.63,1.18-1,1.73-.39.56-.82,1.09-1.28,1.6-.48.5-.99.96-1.54,1.38-.27.22-.56.41-.86.58-.29.19-.59.37-.9.52-.62.31-1.27.57-1.93.78l-1,.25-1,.18c-.66.08-1.33.12-2,.11-.67,0-1.34-.04-2-.13-.67-.08-1.34-.2-2-.35-.65-.14-1.29-.32-1.92-.52-1.25-.39-2.48-.87-3.66-1.44-.6-.27-1.18-.57-1.75-.88s-1.13-.64-1.72-1l1.31-1.19c.29.6.6,1.18.86,1.8.27.61.5,1.24.71,1.87l.3,1,.22,1c.13.66.23,1.33.3,2,.04.67.04,1.33,0,2-.03.67-.11,1.34-.24,2l-.22,1-.3,1c-.22.64-.48,1.27-.78,1.88-.29.61-.63,1.19-1,1.75-.37.55-.76,1.07-1.18,1.58-.43.52-.87,1-1.33,1.49s-.95.92-1.44,1.36c-1,.86-2.05,1.65-3.15,2.37-.55.36-1.11.69-1.68,1-.58.32-1.15.62-1.78.9l.07-1.19c.47.32,1,.61,1.42.94s.92.67,1.33,1.07l.64.58.59.62c.38.43.75.87,1.08,1.34.33.48.63.97.89,1.49.27.51.49,1.04.68,1.58l.25.83.18.84c.11.56.17,1.14.2,1.71.07,2.27-.32,4.52-1.16,6.63-.8,2.09-1.87,4.06-3.19,5.86l-.29-.4.67-.19c.23-.07.46-.1.69-.15.45-.1.91-.13,1.37-.19.92-.05,1.84-.05,2.76,0,1.83.1,3.65.35,5.43.76Z"/>
  </g>
</svg>