<?xml version="1.0" encoding="UTF-8"?>
<svg xmlns="http://www.w3.org/2000/svg" viewBox="0 0 387.78 295.06">
  <defs>
    <style>
      .cls-1 {
        fill: #3ab22c;
      }

      .cls-1, .cls-2, .cls-3, .cls-4, .cls-5, .cls-6, .cls-7, .cls-8, .cls-9, .cls-10, .cls-11, .cls-12, .cls-13, .cls-14, .cls-15, .cls-16, .cls-17, .cls-18, .cls-19, .cls-20, .cls-21, .cls-22, .cls-23, .cls-24, .cls-25, .cls-26, .cls-27 {
        stroke-width: 0px;
      }

      .cls-2 {
        opacity: .8;
      }

      .cls-2, .cls-4, .cls-7, .cls-8, .cls-11, .cls-13, .cls-16, .cls-18, .cls-23, .cls-25 {
        isolation: isolate;
      }

      .cls-2, .cls-4, .cls-8, .cls-13, .cls-15, .cls-16, .cls-18, .cls-25 {
        fill: #fff;
      }

      .cls-3 {
        fill: #ff2036;
      }

      .cls-4, .cls-23 {
        opacity: .4;
      }

      .cls-28, .cls-11, .cls-13 {
        opacity: .5;
      }

      .cls-5 {
        fill: #81d916;
      }

      .cls-6 {
        fill: #f12a80;
      }

      .cls-7, .cls-16 {
        opacity: .2;
      }

      .cls-8 {
        opacity: .3;
      }

      .cls-9 {
        fill: #f5f5f5;
      }

      .cls-10 {
        fill: #f8ba37;
      }

      .cls-12 {
        fill: #059a5a;
      }

      .cls-14 {
        fill: #a02724;
      }

      .cls-17 {
        fill: #ffb573;
      }

      .cls-18 {
        opacity: .6;
      }

      .cls-19 {
        fill: #263238;
      }

      .cls-29 {
        stroke: #263238;
      }

      .cls-29, .cls-30 {
        fill: none;
        stroke-miterlimit: 10;
      }

      .cls-30 {
        stroke: #f8ba37;
      }

      .cls-20 {
        fill: #f89737;
      }

      .cls-21 {
        fill: #ba4d3c;
      }

      .cls-22 {
        fill: #ed893e;
      }

      .cls-24 {
        fill: #ce7a63;
      }

      .cls-25 {
        opacity: .1;
      }

      .cls-26 {
        fill: #6fcb3e;
      }

      .cls-27 {
        fill: #b55b52;
      }
    </style>
  </defs>
  <g id="Camada_1" data-name="Camada 1">
    <g id="freepik--Shadow--inject-124" class="cls-28">
      <ellipse id="freepik--path--inject-124" class="cls-9" cx="193.89" cy="283.74" rx="193.89" ry="11.32"/>
    </g>
    <g id="freepik--Chair--inject-124">
      <path class="cls-19" d="M346.6,235.15v47.6h2.63v-23.82c0-8.35,4.42-15.13,9.86-15.13s9.87,6.78,9.87,15.13v23.82h2.63v-47.6h-24.99Z"/>
      <path class="cls-19" d="M308.26,235.15v47.6h4v-23.82c.21-8.36,7.17-14.96,15.52-14.75,8.06.21,14.54,6.69,14.75,14.75h0v23.82h4v-47.6h-38.27Z"/>
      <polygon class="cls-1" points="368.28 235.15 330.91 235.15 337.92 196.65 372.95 196.65 368.28 235.15"/>
      <path class="cls-1" d="M308.26,235.15v47.6h2.63v-23.82c0-8.35,4.42-15.13,9.87-15.13s9.86,6.78,9.86,15.13v23.82h2.63v-47.6h-24.99Z"/>
      <path class="cls-1" d="M371.59,196.65l-7,38.5h-31.34v47.6h4v-23.82c.21-8.36,7.17-14.96,15.52-14.75,8.06.21,14.54,6.69,14.75,14.75h0v23.82h4v-47.6l4.67-38.5h-4.6Z"/>
      <polygon class="cls-16" points="368.28 235.15 330.91 235.15 337.92 196.65 372.95 196.65 368.28 235.15"/>
      <path class="cls-16" d="M308.26,235.15v47.6h2.63v-23.82c0-8.35,4.42-15.13,9.87-15.13s9.86,6.78,9.86,15.13v23.82h2.63v-47.6h-24.99Z"/>
      <path class="cls-1" d="M371.59,196.65l-7,38.5h-31.34v47.6h4v-23.82c.21-8.36,7.17-14.96,15.52-14.75,8.06.21,14.54,6.69,14.75,14.75h0v23.82h4v-47.6l4.67-38.5h-4.6Z"/>
      <path class="cls-4" d="M371.59,196.65l-7,38.5h-31.34v47.6h4v-23.82c.21-8.36,7.17-14.96,15.52-14.75,8.06.21,14.54,6.69,14.75,14.75h0v23.82h4v-47.6l4.67-38.5h-4.6Z"/>
    </g>
    <g id="freepik--table-2--inject-124">
      <rect class="cls-5" x="320.3" y="199.95" width="44.6" height="4.27"/>
      <rect class="cls-5" x="250.63" y="199.95" width="69.66" height="4.27"/>
      <rect class="cls-25" x="320.3" y="199.95" width="44.6" height="4.27"/>
      <rect class="cls-13" x="250.63" y="199.95" width="69.66" height="4.27"/>
      <rect class="cls-5" x="311.69" y="204.22" width="2.34" height="78.53"/>
      <rect class="cls-16" x="311.69" y="204.22" width="2.34" height="78.53"/>
      <rect class="cls-5" x="307.65" y="204.22" width="4.04" height="78.53"/>
      <rect class="cls-4" x="307.65" y="204.22" width="4.04" height="78.53"/>
      <rect class="cls-5" x="258.85" y="204.22" width="2.34" height="78.53"/>
      <rect class="cls-16" x="258.85" y="204.22" width="2.34" height="78.53"/>
      <rect class="cls-5" x="254.81" y="204.22" width="4.04" height="78.53"/>
      <rect class="cls-4" x="254.81" y="204.22" width="4.04" height="78.53"/>
      <rect class="cls-5" x="355.65" y="204.22" width="2.34" height="78.53"/>
      <rect class="cls-5" x="351.62" y="204.22" width="4.04" height="78.53"/>
      <rect class="cls-25" x="351.62" y="204.22" width="4.04" height="78.53"/>
      <rect class="cls-5" x="302.81" y="204.22" width="2.34" height="78.53"/>
      <rect class="cls-5" x="298.77" y="204.22" width="4.04" height="78.53"/>
      <rect class="cls-16" x="298.77" y="204.22" width="4.04" height="78.53"/>
    </g>
    <g id="freepik--character-3--inject-124">
      <path class="cls-27" d="M289.98,208.05l-3.16,30.1s.81,6.64.83,9.87c.05,6.72-1.35,29.87-1.35,29.87h-6.87l-5.13-69.84h15.68Z"/>
      <polygon class="cls-19" points="292.92 193.66 290.43 224.48 273.56 224.48 272.66 194.46 292.92 193.66"/>
      <path class="cls-11" d="M291.98,205.22l-1.42,17.55c-4.21-6.32-5.48-14.15-3.51-21.48l2.31-.5,2.62,4.43Z"/>
      <path class="cls-20" d="M276.8,276.1c-.71.06-1.42-.13-2-.56-.15-.21-.15-.5,0-.71.12-.18.31-.32.52-.37,1.16-.3,3.53,1.12,3.64,1.18.08.04.11.14.06.22-.03.05-.07.08-.12.08-.69.12-1.4.17-2.1.16ZM275.72,274.75c-.1-.02-.21-.02-.31,0-.14.02-.26.1-.32.22-.13.2-.08.3,0,.35.31.46,2,.5,3.33.36-.82-.47-1.72-.79-2.66-.93h-.04Z"/>
      <path class="cls-20" d="M278.89,275.94h-.07c-.78-.37-2.45-1.9-2.28-2.67,0-.19.16-.4.61-.44.33-.03.65.07.9.29.61.76.96,1.7,1,2.68.01.06-.02.11-.07.14-.03.01-.06.01-.09,0ZM277.25,273.13h-.09c-.3,0-.31.14-.33.18,0,.47,1,1.65,1.86,2.17-.07-.78-.37-1.52-.88-2.12-.15-.14-.35-.21-.56-.21v-.02Z"/>
      <path class="cls-19" d="M279.62,274.99l7.51.13c.28.01.52.21.58.49l1.25,6.12c.12.54-.22,1.07-.76,1.19h-.23c-2.71-.09-5.11-.28-8.48-.33-4-.07-3,.43-7.65.41-2.82,0-3.28-3.22-2.08-3.35,5.45-.6,6.07-2.24,8.21-4.16.47-.36,1.06-.54,1.65-.5Z"/>
      <path class="cls-27" d="M306.23,205.56l3.44,30s3.57,9.33,4.19,12.5c1.29,6.6,5.64,23.66,5.64,23.66l-6.74,2.45-22.94-65.69,16.41-2.92Z"/>
      <path class="cls-10" d="M309.17,272.24c-.7.19-1.44.11-2.08-.21-.18-.19-.23-.46-.12-.7.08-.2.25-.37.45-.45,1.08-.49,3.66.51,3.78.55.06.03.11.09.1.16,0,.07-.05.12-.11.14-.66.23-1.33.4-2.02.51ZM307.89,271.05c-.1-.01-.21-.01-.31,0-.13.05-.23.15-.28.28-.09.21,0,.3,0,.35.39.4,2.1.15,3.35-.21-.89-.31-1.82-.45-2.76-.42Z"/>
      <path class="cls-10" d="M311.19,271.73s-.05.02-.07,0c-.83-.23-2.73-1.46-2.7-2.24,0-.19.1-.43.53-.55.32-.08.66-.03.94.14.74.65,1.25,1.51,1.46,2.47.02.05.02.1,0,.15-.04.04-.11.06-.16.03ZM309.11,269.24h-.1c-.29.05-.28.19-.29.23,0,.47,1.28,1.46,2.2,1.83-.2-.76-.62-1.43-1.22-1.94-.18-.11-.39-.15-.59-.12Z"/>
      <path class="cls-19" d="M311.77,270.67l7.42-1.13c.28-.05.55.11.65.37l2.26,5.83c.21.51-.04,1.09-.55,1.3h-.21c-2.69.37-5.09.59-8.41,1.1-3.94.6-2.86.92-7.48,1.7-2.78.47-3.77-2.63-2.61-3,5.27-1.51,5.61-3.23,7.39-5.48.42-.41.96-.65,1.54-.69Z"/>
      <path class="cls-19" d="M305.89,192.16l1.57,14.9,2.05,13.52-15.81,3.39s-7-21-11-30.38l23.19-1.43Z"/>
      <path class="cls-27" d="M273.07,145.59c-2.92-1.61-5.95-3.28-8.81-5-1.42-.85-2.85-1.71-4.07-2.6-.53-.36-1.04-.76-1.51-1.2-.4-.43-.73-.92-1-1.44-.79-1.39-1.49-2.83-2.1-4.31-.67-1.53-1.28-3.12-1.91-4.71-1.22-3.19-2.44-6.45-3.63-9.68h0c-.42-1.02-1.59-1.5-2.61-1.08-.81.33-1.3,1.15-1.23,2.02.43,3.52,1.04,7.01,1.84,10.46.78,3.61,1.9,7.14,3.36,10.54.47,1.07,1.07,2.08,1.79,3,.72.84,1.5,1.62,2.34,2.33,1.44,1.21,2.96,2.33,4.53,3.36,3,2,6.12,3.81,9.35,5.42,1.96,1.03,4.37.28,5.4-1.67s.28-4.37-1.67-5.4l-.07-.03Z"/>
      <path class="cls-27" d="M306.64,158.96c3.07,1.42,6.25,2.56,9.52,3.42,1.76.47,3.55.77,5.36.92,1.13.09,2.27.03,3.38-.18.79-.15,1.55-.43,2.25-.83.66-.39,1.25-.89,1.75-1.46.72-.85,1.33-1.79,1.79-2.8.39-.84.72-1.7,1-2.58.52-1.64.93-3.31,1.23-5,.6-3.24.94-6.53,1-9.83,0-1.1-.9-2-2-2-.87,0-1.65.57-1.91,1.41v.06c-.85,3-1.77,6-2.76,8.85-.48,1.39-1.04,2.76-1.66,4.1-.27.61-.58,1.19-.93,1.76-.25.42-.55.8-.9,1.13-.11.11-.15.07-.08,0s.15-.08,0-.09c-.46,0-.92-.04-1.38-.12-1.36-.23-2.69-.57-4-1-2.75-.88-5.68-2-8.38-3.12h-.1c-2.04-.85-4.38.11-5.23,2.15-.83,2,.08,4.3,2.05,5.19v.02Z"/>
      <path class="cls-10" d="M304.51,147.98c.06,15.54,1.06,31.06,3,46.48l-35.4,2.14s-3.9-38.15.11-52.31c0,0,13.83-1.09,32.29,3.69Z"/>
      <path class="cls-10" d="M275.43,145.59c-2.59-1.49-10.38-6.91-10.38-6.91l-4,11.46s10.61,7.81,14.38,2.73,1.57-6.37,0-7.28Z"/>
      <path class="cls-10" d="M304.51,147.98c2.78.55,10.67,3.92,10.67,3.92l-3.75,10.89s-13.06-4.84-12.53-9.92,3.78-5.25,5.61-4.89Z"/>
      <path class="cls-27" d="M245.82,116.38l-1-4.12,6.94-.29s.17,4.16-1.68,6.84l-.9-.14c-1.42-.2-2.66-1.04-3.36-2.29Z"/>
      <path class="cls-27" d="M247.6,108.52l2.41.21c1.1.09,1.92,1.06,1.83,2.16,0,0,0,0,0,0l-.08,1.08-6.94.29.67-2.3c.27-.93,1.15-1.53,2.11-1.44Z"/>
      <path class="cls-27" d="M329.03,140.78l-1.59-3.92,6.83-1.29s.77,4.09-.68,7h-.91c-1.43.01-2.78-.65-3.65-1.79Z"/>
      <path class="cls-27" d="M329.65,132.75l2.42-.14c1.1-.07,2.06.76,2.13,1.86,0,0,0,.01,0,.02l.07,1.08-6.83,1.29.33-2.38c.13-.95.92-1.68,1.88-1.73Z"/>
      <path class="cls-27" d="M292.51,137.92s-1.79,7.66.33,8.16c0,0-5.79,3.84-9.31,3.42s0-8.08-.23-10.5l9.21-1.08Z"/>
      <path class="cls-7" d="M283.3,139.05l8.42-1,.27.28s-3.31,6.89-9.19,3.95c.31-1.05.48-2.14.5-3.23Z"/>
      <path class="cls-27" d="M298.73,122.47c-.98-4.99-5.82-8.23-10.81-7.25-.01,0-.02,0-.03,0-7,1.33-9.81,11-9.59,17.19.27,6.87,7.92,10.41,13.94,6.3,4-2.68,4.58-5.51,6.3-12,.39-1.38.46-2.84.19-4.25Z"/>
      <path class="cls-19" d="M288.16,125.87c-.34-.11-.74.22-.92.74s-.06,1,.29,1.14.76-.21.93-.73.05-1.03-.3-1.15Z"/>
      <path class="cls-19" d="M282.3,123.87c-.34-.11-.76.22-.93.74s0,1,.29,1.15.76-.22.94-.74.04-1.04-.3-1.15Z"/>
      <path class="cls-14" d="M282.68,129.69c-.69-.07-1.31-.43-1.7-1,1.13-.73,2.16-1.61,3.05-2.61l-1.35,3.61Z"/>
      <path class="cls-19" d="M290.25,125.39h0c.16-.07.23-.26.16-.42-.74-1.66-2.89-2.08-3-2.12-.17-.04-.33.06-.38.23,0,0,0,.02,0,.02-.03.17.08.34.25.38,1.04.21,1.95.84,2.5,1.75.05.13.18.22.32.2.05.01.11,0,.15-.04Z"/>
      <path class="cls-19" d="M281.94,121.83c.77-.29,1.63-.2,2.32.25.14.11.34.08.45-.06,0,0,0,0,0,0h0c.1-.14.07-.34-.07-.44-.85-.59-1.94-.72-2.91-.35-.17.05-.26.23-.21.4.04.11.13.19.25.22.06,0,.12,0,.17-.02Z"/>
      <path class="cls-15" d="M281.44,132.05h0c-.06,1.23.89,2.28,2.12,2.34,0,0,0,0,.01,0,1.75.46,3.59-.38,4.4-2-2.15-.39-4.33-.57-6.51-.54-.01.07-.02.13-.02.2Z"/>
      <path class="cls-19" d="M295.72,131.62s-1-2.64,0-7.15c-1.49.79-3.35.22-4.14-1.27-.12-.23-.21-.47-.27-.73,0,0-6.34.37-6.26-3.3,0,0-6.63,2-5.85-2.75s16.56-8.92,21.33,1.71c0,0,11.82,9.16-3.66,16.31,0,0-1.29,2.11-1.93,2s.78-4.82.78-4.82Z"/>
      <path class="cls-27" d="M299.61,131.7c.26-1.2-.51-2.39-1.71-2.65h0c-1.65-.34-3.15,1.52-3.66,2.9s.17,3.08,1.86,2.72c1.27-.28,2.39-1.05,3.1-2.14.19-.25.34-.53.42-.83Z"/>
      <path class="cls-10" d="M293.27,144.17s-6.5,4.64-8.66,4.51-2.2-5.32-2.2-5.32l-3.21.82v7.72l5.13-2,4.62,3,7.17-6.75-2.85-1.98Z"/>
      <path class="cls-2" d="M293.27,144.17s-6.5,4.64-8.66,4.51-2.2-5.32-2.2-5.32l-3.21.82v7.72l5.13-2,4.62,3,7.17-6.75-2.85-1.98Z"/>
      <rect class="cls-10" x="219.07" y="66.31" width="58.52" height="48.45"/>
      <rect class="cls-2" x="219.07" y="66.31" width="58.52" height="48.45"/>
      <path class="cls-20" d="M324.43,123.43l-2.06-1c-.26-.11-.56,0-.67.26-.04.09-.05.18-.04.28l.36,2.25,9.21,12.22,2.42-1.82-9.22-12.19Z"/>
      <polygon class="cls-13" points="325.11 124.32 332.66 134.34 330.22 136.13 322.74 126.2 325.11 124.32"/>
      <polygon class="cls-10" points="325.89 125.36 323.54 127.27 323.11 126.7 325.46 124.79 325.89 125.36"/>
      <polygon class="cls-10" points="329.73 135.48 329.3 134.91 331.76 133.14 332.19 133.71 329.73 135.48"/>
    </g>
    <g id="freepik--character-1--inject-124">
      <path class="cls-19" d="M34.19,235.15v47.6h2.63v-23.82c0-8.35,4.42-15.13,9.87-15.13s9.86,6.78,9.86,15.13v23.82h2.63v-47.6h-24.99Z"/>
      <path class="cls-19" d="M59.18,235.15v47.6h4v-23.82h0c.21-8.36,7.17-14.96,15.52-14.75,8.06.21,14.54,6.69,14.75,14.75v23.82h4v-47.6h-38.27Z"/>
      <polygon class="cls-12" points="32.83 196.65 67.86 196.65 74.87 235.15 37.5 235.15 32.83 196.65"/>
      <path class="cls-1" d="M72.53,235.15v47.6h2.63v-23.82c0-8.35,4.42-15.13,9.86-15.13s9.87,6.78,9.87,15.13v23.82h2.63v-47.6h-24.99Z"/>
      <path class="cls-1" d="M29.52,196.65l4.67,38.5v47.6h4v-23.82h0c.21-8.36,7.17-14.96,15.52-14.75,8.06.21,14.54,6.69,14.75,14.75v23.82h4v-47.6h-31.26l-7-38.5h-4.68Z"/>
      <polygon class="cls-16" points="32.83 196.65 67.86 196.65 74.87 235.15 37.5 235.15 32.83 196.65"/>
      <path class="cls-16" d="M72.53,235.15v47.6h2.63v-23.82c0-8.35,4.42-15.13,9.86-15.13s9.87,6.78,9.87,15.13v23.82h2.63v-47.6h-24.99Z"/>
      <path class="cls-5" d="M29.52,196.65l4.67,38.5v47.6h4v-23.82h0c.21-8.36,7.17-14.96,15.52-14.75,8.06.21,14.54,6.69,14.75,14.75v23.82h4v-47.6h-31.26l-7-38.5h-4.68Z"/>
      <path class="cls-4" d="M29.52,196.65l4.67,38.5v47.6h4v-23.82h0c.21-8.36,7.17-14.96,15.52-14.75,8.06.21,14.54,6.69,14.75,14.75v23.82h4v-47.6h-31.26l-7-38.5h-4.68Z"/>
      <path class="cls-17" d="M86.4,178.05c2.23-3.9,4.29-7.81,6.25-11.84,1-2,1.94-4,2.83-6.13s1.79-4.17,2.55-6.51c.19-.56.36-1.24.54-1.86s.29-1.33.39-1.94c.2-1.23.3-2.4.39-3.56.19-2.3.23-4.55.26-6.8,0-4.49-.14-8.92-.53-13.39-.1-1.23-1.17-2.16-2.41-2.06-1.04.08-1.89.87-2.04,1.91h0c-.67,4.33-1.27,8.7-1.9,13-.3,2.14-.63,4.29-1,6.35-.19,1-.4,2-.62,3-.22.87-.51,1.72-.85,2.55-.75,1.8-1.68,3.74-2.63,5.64s-2,3.83-3,5.75l-6.13,11.5h0c-1.13,2.21-.26,4.92,1.95,6.06,2.12,1.09,4.72.33,5.93-1.72l.02.05Z"/>
      <path class="cls-10" d="M88.95,176.95c-2.07,2.45-4.82,3.86-8.28,2.13-9-4.48,3.71-19,3.71-19l9.64,5.84s-1.61,6.94-5.07,11.03Z"/>
      <path class="cls-17" d="M101.19,215.05l-8.3,16h8.69c-2.21,6.36,2.72,44.9,2.72,44.9h7.14s4.55-47.36,4.8-52.68-7.45-7.86-11-8.3c-1.02-.08-4.05.08-4.05.08Z"/>
      <path class="cls-19" d="M62.89,209.59s-9.74,23.23,5.58,24.13c10.25.43,20.52-.26,30.62-2.07,2.52-17.4,11-16.22,11-16.22-6.87-3.5-14-1.69-18.94-3.25-1-.3-3.24-2.59-3.24-2.59h-25.02Z"/>
      <path class="cls-11" d="M62.89,209.59s-9.74,23.23,5.58,24.13c10.25.43,20.52-.26,30.62-2.07,2.52-17.4,11-16.22,11-16.22-6.87-3.5-14-1.69-18.94-3.25-1-.3-3.24-2.59-3.24-2.59h-25.02Z"/>
      <path class="cls-20" d="M109.31,214.29s-3.72-.52-8.18,6-3.83,12.33-3.83,12.33l2.47-.45s1-6.94,4.61-11.36c2.02-2.58,5.04-4.17,8.31-4.38l-3.38-2.14Z"/>
      <path class="cls-10" d="M112.02,275.94c-.06-.01-.11-.06-.13-.12-.01-.07.01-.14.07-.18.11-.06,2.49-1.48,3.64-1.18.21.05.4.19.52.37.15.21.15.5,0,.71-.58.43-1.29.62-2,.56-.7.01-1.41-.04-2.1-.16ZM115.18,274.75c-.94.14-1.84.46-2.66.93,1.29.14,3,.1,3.33-.36,0,0,.09-.15,0-.35-.07-.12-.19-.2-.33-.22-.1-.02-.21-.02-.31,0h-.03Z"/>
      <path class="cls-20" d="M111.89,275.94s-.08-.08-.08-.14c.04-.98.39-1.92,1-2.68.25-.22.57-.32.9-.29.45,0,.62.25.62.44.16.77-1.51,2.3-2.29,2.67h-.07s-.05.01-.08,0ZM113.63,273.15c-.21,0-.41.07-.56.21-.51.6-.81,1.34-.88,2.12.85-.52,1.91-1.7,1.86-2.17,0,0,0-.18-.33-.18h-.09v.02Z"/>
      <path class="cls-19" d="M112.89,275.49c2.14,1.92,2.76,3.56,8.21,4.16,1.2.13.74,3.35-2.08,3.35-4.68,0-3.67-.48-7.65-.41-3.36,0-5.77.24-8.48.33h-.23c-.54-.12-.88-.65-.76-1.19l1.25-6.12c.06-.28.3-.48.58-.49l7.51-.13c.59-.04,1.18.14,1.65.5Z"/>
      <path class="cls-17" d="M82.45,218.8l-8.3,15.31h9.47c-2.2,6.36,2.72,41.78,2.72,41.78h7.14s5.31-45.79,5.58-51.12-12.58-6-12.58-6l-4.03.03Z"/>
      <path class="cls-19" d="M81.11,211.16s.91,1.83,1.36,2.53c2.18,3.33,13.35,6.31,13.35,6.31-11.5,2.34-15.11,14.7-15.11,14.7,0,0,1.94,1.55-14.21,0s-14-25.11-14-25.11l28.61,1.57Z"/>
      <path class="cls-20" d="M94.89,219.05c-14.14,5.19-16.63,16.76-16.63,16.76l3.4-.44c3.3-8.92,16.63-14.32,16.63-14.32l-3.4-2Z"/>
      <path class="cls-20" d="M93.89,275.94c-.07,0-.12-.05-.14-.12-.01-.07.01-.14.07-.18.11-.06,2.49-1.48,3.64-1.18.21.05.4.19.52.37.15.21.15.5,0,.71-.58.43-1.29.62-2,.56-.7.01-1.4-.04-2.09-.16ZM97.04,274.75c-.94.14-1.84.46-2.66.93,1.29.14,3,.1,3.34-.36,0,0,.08-.15,0-.35-.07-.12-.19-.2-.33-.22-.1-.02-.21-.02-.31,0h-.04Z"/>
      <path class="cls-20" d="M93.82,275.94s-.08-.08-.08-.14c.04-.98.39-1.92,1-2.68.25-.22.57-.32.9-.29.45,0,.62.25.62.44.16.77-1.51,2.3-2.28,2.67h-.09s-.05,0-.07,0ZM95.56,273.15c-.21,0-.41.07-.56.21-.5.6-.81,1.34-.88,2.12.85-.52,1.91-1.7,1.86-2.17,0,0,0-.18-.33-.18h-.09v.02Z"/>
      <path class="cls-19" d="M94.83,275.49c2.14,1.92,2.76,3.56,8.21,4.16,1.2.13.74,3.35-2.08,3.35-4.68,0-3.67-.48-7.65-.41-3.36,0-5.77.24-8.48.33h-.23c-.54-.12-.88-.65-.76-1.19l1.25-6.12c.06-.28.3-.48.58-.49l7.51-.13c.59-.04,1.18.14,1.65.5Z"/>
      <path class="cls-10" d="M57.13,168.56c-8.41,3.4-5.06,16.13-4.79,28.44.31,14.32-.44,14.34-.44,14.34,12.28,2.67,25.02,2.41,37.18-.78-6-20.69-2.41-44.21-2.41-44.21,0,0-15.24-3.5-29.54,2.21Z"/>
      <path class="cls-17" d="M60.41,172.49l-8-10.28c-1.33-1.71-2.63-3.44-3.91-5.15s-2.51-3.46-3.56-5.11c-.48-.75-.91-1.54-1.27-2.36-.38-.89-.77-1.84-1.13-2.83-.72-2-1.41-4-2.08-6.09-1.35-4.12-2.7-8.32-4.1-12.47h0c-.38-1.18-1.64-1.82-2.82-1.45-1.01.32-1.65,1.31-1.54,2.37.39,4.46,1,8.86,1.78,13.28.42,2.21.85,4.41,1.43,6.65.29,1.12.59,2.26,1,3.44.2.59.45,1.25.71,1.84s.57,1.22.86,1.74c1.15,2.17,2.38,4.07,3.63,6s2.54,3.72,3.84,5.55c2.63,3.63,5.33,7.13,8.2,10.59,1.67,1.84,4.52,1.97,6.36.3,1.68-1.53,1.96-4.07.64-5.93l-.04-.09Z"/>
      <path class="cls-10" d="M43.25,166.97l8.76-6.89s16.58,12.14,8,19.32c-8.26,6.95-16.76-12.43-16.76-12.43Z"/>
      <path class="cls-17" d="M64.5,157.39s2.06,8-1,9.74c2.22,2.55,5.44,3.98,8.82,3.92,5.87,0,3-5.55,3-5.55,0,0-1.26-.31-1.88-4.73s-8.94-3.38-8.94-3.38Z"/>
      <path class="cls-17" d="M60.4,142.53c1.38-4.77,6.37-7.52,11.15-6.14.01,0,.03,0,.04.01,6.71,1.93,8.65,11.56,7.87,17.64-.86,6.71-8.65,10.61-14.18,6.06-3.68-3-4-6.89-5.1-13.42-.25-1.38-.18-2.8.22-4.15Z"/>
      <path class="cls-19" d="M70.83,146.82c.38-.1.78.24.91.77s0,1-.36,1.11-.72-.26-.86-.79-.06-.99.31-1.09Z"/>
      <path class="cls-19" d="M76.78,145.23c.34-.1.72.26.86.77s0,1-.35,1.1-.73-.25-.88-.77.03-1.01.37-1.1Z"/>
      <path class="cls-22" d="M75.89,152.22c.92,0,1.79-.4,2.38-1.1-1.36-1.12-2.56-2.42-3.57-3.87l1.19,4.97Z"/>
      <path class="cls-19" d="M68.09,145.89c.28-.75.9-1.33,1.68-1.54h0c.18-.01.31-.17.29-.34-.01-.18-.17-.31-.34-.29-.02,0-.03,0-.05,0-.98.26-1.78.97-2.15,1.92-.06.16.02.34.18.41h.15c.1-.01.19-.07.24-.16Z"/>
      <path class="cls-19" d="M78.26,143.29h0c.12-.12.12-.31,0-.42,0,0,0,0,0,0-.64-.8-1.64-1.23-2.66-1.15h0c-.17.03-.28.19-.26.36h0c.03.17.19.28.36.26.8-.04,1.56.3,2.07.92.07.08.18.12.28.1.08,0,.15-.01.21-.06Z"/>
      <path class="cls-15" d="M75.99,154.35c-1.94-.5-3.92-.84-5.92-1,.4,1.27,1.27,2.37,3.52,2.61,2.25.24,2.4-1.61,2.4-1.61Z"/>
      <path class="cls-19" d="M62.68,150.98s3.73-2.32.84-7.5c0,0,4.1,1.39,5.1-1.34,0,0,4.44.65,4.06-2,0,0,4.05,2.19,4.18-.62,0,0,3.77-1.87,2.76-3.88-1.13-2.25-5.13-.31-5.13-.31,0,0,.88-2.75-1.25-3.5s-3.45,2.31-3.45,2.31c0,0-1.43-3-3.76-2.33s-1.81,4.21-1.81,4.21c0,0-2.44-2.19-4.19-.69s-.66,4.63-.66,4.63c0,0-2.46-.38-3.06,1.75-.69,2.4,1.87,3.48,1.87,3.48-1.18.58-1.82,1.89-1.56,3.18.31,2.42,2.06,2.09,2.06,2.09,0,0,2.46,8,4,6.44s0-5.92,0-5.92Z"/>
      <path class="cls-17" d="M58.89,148.56c2.06-.65,4.22,1.54,5,3.24.91,1.89.17,3.93-2,3.69-1.65-.2-3.16-1.04-4.2-2.33-1.05-1.16-.97-2.96.2-4.01.29-.26.63-.46,1-.59Z"/>
      <rect class="cls-10" x="36.76" y="80.66" width="58.52" height="48.45"/>
      <rect class="cls-2" x="36.76" y="80.66" width="58.52" height="48.45"/>
      <path class="cls-17" d="M98.89,124.7l-1.47-4-5.9,3.65s2.19,3.53,5.22,4.71l.66-.62c1.05-.95,1.6-2.33,1.49-3.74Z"/>
      <path class="cls-17" d="M93.03,119.2l-1.87,1.53c-.86.69-1.01,1.95-.32,2.81,0,0,0,0,0,0l.68.84,5.9-3.65-1.85-1.53c-.74-.62-1.81-.62-2.55-.01Z"/>
      <path class="cls-17" d="M32.1,125.65l1.48-4,5.91,3.66s-2.19,3.54-5.23,4.72l-.66-.62c-1.06-.95-1.61-2.34-1.5-3.76Z"/>
      <path class="cls-17" d="M37.98,120.15l1.91,1.53c.86.69.99,1.95.3,2.81l-.67.85-5.91-3.66,1.85-1.53c.73-.6,1.79-.6,2.52,0Z"/>
      <path class="cls-10" d="M64.18,165.36s6.5,4.64,8.66,4.52c2.16-.12,2.19-5.32,2.19-5.32l3.22.82v7.72l-5.13-2-4.62,3-7.18-6.75,2.86-1.99Z"/>
      <path class="cls-2" d="M64.18,165.36s6.5,4.64,8.66,4.52c2.16-.12,2.19-5.32,2.19-5.32l3.22.82v7.72l-5.13-2-4.62,3-7.18-6.75,2.86-1.99Z"/>
    </g>
    <g id="freepik--table-1--inject-124">
      <rect class="cls-5" x="138.98" y="199.95" width="44.6" height="4.27"/>
      <rect class="cls-26" x="69.32" y="199.95" width="69.66" height="4.27"/>
      <rect class="cls-16" x="138.98" y="199.95" width="44.6" height="4.27"/>
      <rect class="cls-13" x="69.32" y="199.95" width="69.66" height="4.27"/>
      <rect class="cls-1" x="130.38" y="204.22" width="2.34" height="78.53"/>
      <rect class="cls-16" x="130.38" y="204.22" width="2.34" height="78.53"/>
      <rect class="cls-5" x="126.35" y="204.22" width="4.04" height="78.53"/>
      <rect class="cls-4" x="126.35" y="204.22" width="4.04" height="78.53"/>
      <rect class="cls-1" x="77.54" y="204.22" width="2.34" height="78.53"/>
      <rect class="cls-16" x="77.54" y="204.22" width="2.34" height="78.53"/>
      <rect class="cls-5" x="73.5" y="204.22" width="4.04" height="78.53"/>
      <rect class="cls-4" x="73.5" y="204.22" width="4.04" height="78.53"/>
      <rect class="cls-1" x="174.34" y="204.22" width="2.34" height="78.53"/>
      <rect class="cls-5" x="170.3" y="204.22" width="4.04" height="78.53"/>
      <rect class="cls-16" x="170.3" y="204.22" width="4.04" height="78.53"/>
      <rect class="cls-1" x="121.49" y="204.22" width="2.34" height="78.53"/>
      <rect class="cls-5" x="117.46" y="204.22" width="4.04" height="78.53"/>
      <rect class="cls-16" x="117.46" y="204.22" width="4.04" height="78.53"/>
      <path class="cls-5" d="M165.4,169.86l-1-3c-.13-.37-.53-.57-.9-.45-.14.05-.25.13-.34.25l-1.9,2.55-3.37,21.11,4.17.66,3.34-21.12Z"/>
      <path class="cls-5" d="M154.53,184.24l1.48,2.81c.18.35.61.48.96.3.13-.07.24-.17.3-.3l1.48-2.81v-19.28c0-1.17-.94-2.11-2.11-2.11h0c-1.17,0-2.11.94-2.11,2.11v19.28Z"/>
      <path class="cls-13" d="M154.53,184.24l1.48,2.81c.18.35.61.48.96.3.13-.07.24-.17.3-.3l1.48-2.81v-19.28c0-1.17-.94-2.11-2.11-2.11h0c-1.17,0-2.11.94-2.11,2.11v19.28Z"/>
      <path class="cls-5" d="M153.13,173.81h0c.01-.97.79-1.75,1.76-1.76h0c2.08.04,3.8-1.62,3.84-3.7,0-.04,0-.08,0-.12-.09-1.87-1.59-3.37-3.46-3.46-2.08-.03-3.79,1.64-3.82,3.72,0,.04,0,.08,0,.12v5.22l1.68-.02ZM152.74,168.39c0-1.31,1.06-2.37,2.37-2.37s2.37,1.06,2.37,2.37c0,1.31-1.06,2.37-2.37,2.37h0c-1.31,0-2.37-1.06-2.37-2.37Z"/>
      <path class="cls-5" d="M151.1,173.86l.07-5.22c.07-2.08-1.55-3.82-3.63-3.89-.05,0-.09,0-.14,0-1.87.06-3.39,1.54-3.5,3.41-.06,2.08,1.59,3.81,3.67,3.87.04,0,.07,0,.11,0h0c.98,0,1.77.8,1.76,1.78,0,.01,0,.02,0,.03h0l1.66.02ZM147.5,170.76c-1.31-.02-2.36-1.09-2.34-2.4.02-1.31,1.09-2.36,2.4-2.34,1.31.02,2.36,1.09,2.34,2.4-.02,1.31-1.09,2.36-2.4,2.34h0Z"/>
      <ellipse class="cls-19" cx="151.32" cy="180.18" rx="3.02" ry="8.25"/>
      <ellipse class="cls-18" cx="151.32" cy="180.18" rx="3.02" ry="8.25"/>
      <path class="cls-8" d="M151.32,188.43c-1.66,0-3-3.69-3-8.25s1.36-8.25,3-8.25v16.5Z"/>
      <path class="cls-5" d="M152.08,199.95h8.3c1.87,0,3.41-1.48,3.5-3.35l.85-19.68h-17l.86,19.68c.08,1.87,1.62,3.35,3.49,3.35Z"/>
      <path class="cls-23" d="M152.08,199.95h8.3c1.87,0,3.41-1.48,3.5-3.35l.85-19.68h-17l.86,19.68c.08,1.87,1.62,3.35,3.49,3.35Z"/>
    </g>
    <g id="freepik--character-2--inject-124">
      <path class="cls-24" d="M177.44,54.57c-4.18,1.51-8.54,3.14-12.75,4.56-2.12.7-4.22,1.38-6.23,1.91-1.49.46-3.03.73-4.59.81-.86-.12-1.72-.31-2.55-.56-1-.27-2-.62-3-1-2.05-.74-4.14-1.6-6.25-2.48l-12.72-5.54h-.05c-1.64-.73-3.56.01-4.29,1.65-.59,1.32-.23,2.87.87,3.8,3.69,3.14,7.57,6.03,11.64,8.66,2,1.32,4.14,2.59,6.38,3.78,1.13.58,2.28,1.15,3.53,1.69,1.36.61,2.77,1.09,4.21,1.44.92.21,1.86.34,2.8.38.81.04,1.63.04,2.44,0,1.39-.09,2.76-.26,4.13-.51,2.59-.45,5-1,7.4-1.69,4.71-1.3,9.34-2.89,13.85-4.78,3.3-1.4,4.84-5.22,3.44-8.53-1.34-3.16-4.91-4.73-8.15-3.58h-.11Z"/>
      <path class="cls-6" d="M162.63,58.76l4.41,13.87s22-4.52,17.78-15.64-22.19,1.77-22.19,1.77Z"/>
      <path class="cls-24" d="M172.8,104.86s-2.68,44.91,1.31,77.24c-.43,27.35,8.3,93.65,8.3,93.65,3.49.69,4.8.8,7.79-.09,0,0,8.6-50.08,5.17-94,8-46.05,5.38-76.77,5.38-76.77l-27.95-.03Z"/>
      <path class="cls-24" d="M184.82,106.86s14.19,59.63,23.14,85.1c9.39,26.75,38,69,39,70.79,3.69-1,5-2.27,7.17-4.42,0,0-13.61-43-18.11-55.39-2-5.49-9.3-17.47-9.3-17.47,0,0-2.39-26.39-4-36.7-1.47-9.4.83-17.13-1.06-23-5-15.36-11.68-19.93-11.68-19.93l-25.16,1.02Z"/>
      <path class="cls-19" d="M181.76,273.74l8.75.13c.32,0,.59.24.62.56l.77,7.16c.05.73-.5,1.36-1.23,1.41-.03,0-.06,0-.09,0-3.15-.1-4.14-.36-8.11-.42-4.64-.08-2.5.12-7.94,0-3.29-.05-3.81-3.38-2.41-3.68,4.46-.93,5.63-2.7,7.64-4.6.57-.43,1.29-.63,2-.56Z"/>
      <path class="cls-6" d="M181.6,274.87c.07,0,.14-.04.17-.1.04-.07.04-.15,0-.22-.27-.31-2.7-3-3.81-2.83-.21.03-.38.17-.47.36h0c-.16.31-.16.69,0,1,.54,1,2.8,1.57,4.1,1.79h0ZM178.07,272.05c.64,0,2,1.27,3,2.3-1.76-.36-3-.91-3.27-1.49-.11-.21-.11-.45,0-.66.03-.08.11-.13.19-.14h.08Z"/>
      <path class="cls-6" d="M181.6,274.87h0c.07-.02.12-.07.14-.13,0-.09.6-2.19-.06-3.33-.18-.34-.49-.59-.86-.69h0c-.51-.13-.75.06-.85.25-.47.79.7,3.1,1.45,3.85.05.05.12.07.18.05ZM180.6,271.05h.2c.27.07.5.25.63.5.31.86.35,1.8.11,2.69-.71-.9-1.44-2.65-1.17-3.12.05-.06.13-.08.2-.07h.03ZM180.85,270.9h0Z"/>
      <path class="cls-19" d="M246.4,261.75l7.68-4.21c.28-.16.63-.08.81.18l4.2,5.85c.41.58.26,1.39-.32,1.8-.04.03-.08.05-.12.07-2.79,1.47-3.78,1.74-7.26,3.64-4.07,2.23-2.11,1.34-6.88,4-2.89,1.58-5-1.06-3.91-2,3.41-3,3.55-5.14,4.36-7.78.26-.68.78-1.24,1.44-1.55Z"/>
      <path class="cls-6" d="M246.38,263.15c.1-.04.14-.15.1-.25-.02-.05-.06-.08-.1-.1-.39-.13-3.82-1.26-4.7-.58-.18.12-.27.34-.24.55h0c0,.35.19.67.49.86,1,.64,3.21,0,4.45-.47h0ZM241.94,262.48c.57-.3,2.4.1,3.75.51-1.71.56-3,.68-3.58.32-.2-.12-.32-.34-.32-.57-.01-.08.02-.17.09-.22l.06-.04Z"/>
      <path class="cls-6" d="M246.38,263.15h0c.05-.05.07-.12.05-.19,0-.08-.56-2.19-1.69-2.86-.32-.21-.72-.27-1.09-.17h0c-.51.13-.62.42-.62.63,0,.92,2.15,2.35,3.17,2.63.06.02.13,0,.18-.04ZM243.6,260.34c.06-.03.12-.06.18-.07h0c.27-.07.56-.03.8.12.7.6,1.2,1.4,1.42,2.29-1.06-.44-2.56-1.59-2.55-2.14,0-.04,0-.12.15-.2ZM243.74,260.09h0Z"/>
      <path class="cls-3" d="M211.81,105.86h-39.43s-4.09,57.39,0,79.39c0,0,17.58,3,55.41-2.16,0,0-4.66-31.67-4.33-41.67s.1-20.95-11.65-35.56Z"/>
      <path class="cls-19" d="M172.09,106.86c-2.22-1.85-1.81-11.78-1.29-18.6.19-3.57-.43-7.13-1.82-10.42-1.78-4.51,1.56-10,1.44-12.76-.27-6.26,4.26-11.7,10.47-12.57,1.72-.25,3.52-.47,5.26-.62,5.36-.38,10.75-.38,16.11,0,1.54.08,3,.2,4.45.34,4.94.51,8.54,4.93,8.03,9.88-.03.3-.08.59-.14.88-4.7,22.49-.87,36.92-1.58,43.88l-24.52,5.31c-.72.14-1.46-.07-2-.56l-2.2-2c-.65-.59-1.62-.64-2.32-.12l-1.73,1.28c-.81.58-1.89.58-2.7,0-1.66-1.11-4.35-2.99-5.46-3.92Z"/>
      <path class="cls-24" d="M202.75,33.74c-1.29,5.18-2.54,13.64-.5,18.14,0,0-7.65.34-17.43,8.15-4.61-6.76.72-8.09.72-8.09,4.07-.95,4.71-5.9,4.71-9.75l12.5-8.45Z"/>
      <path class="cls-7" d="M190.24,42.19l7.11-4.81c.07,1.09-.15,2.18-.63,3.16-1.5,2.8-3.93,4.98-6.88,6.16.29-1.49.42-3,.4-4.51Z"/>
      <path class="cls-24" d="M206.12,24.23c-2,8.43-2.7,12-7.69,15.67-7.52,5.46-17.23,1.15-17.72-7.71-.44-8,3-20.43,11.73-22.37s15.71,5.98,13.68,14.41Z"/>
      <path class="cls-19" d="M192.02,27.66c-.12.69-.59,1.19-1,1.11s-.72-.71-.6-1.4.59-1.19,1-1.11.73.71.6,1.4Z"/>
      <path class="cls-19" d="M183.47,26.27c-.13.69-.59,1.19-1.05,1.11s-.72-.71-.6-1.4.59-1.19,1-1.11.77.71.65,1.4Z"/>
      <path class="cls-19" d="M183.06,24.94l-1.58-.77s.62,1.45,1.58.77Z"/>
      <path class="cls-19" d="M189.67,35.05c-.4,0-.79-.04-1.18-.11-.11-.02-.19-.13-.17-.24.02-.11.14-.18.25-.16,1.74.35,3.55-.16,4.86-1.36.06-.1.19-.13.29-.07.1.06.13.19.07.29-.02.03-.04.05-.06.07-1.09,1.04-2.55,1.61-4.06,1.59Z"/>
      <path class="cls-19" d="M194.48,23.73c-.11-.03-.2-.11-.25-.21-.44-.96-1.32-1.65-2.35-1.85-.22-.03-.39-.23-.36-.45,0,0,0,0,0,0,.02-.22.21-.38.43-.36,0,0,.02,0,.03,0,1.31.23,2.43,1.09,3,2.3.1.21.02.46-.19.56-.1.05-.21.06-.31.02Z"/>
      <path class="cls-19" d="M181.02,21.98c-.1-.02-.2-.08-.26-.16-.14-.18-.11-.44.07-.58,0,0,0,0,0,0,1.04-.84,2.42-1.11,3.7-.74.21.07.33.31.25.52,0,0,0,0,0,0-.07.21-.29.32-.5.26,0,0-.01,0-.02,0-1.02-.27-2.11-.04-2.93.62-.09.06-.21.09-.32.08Z"/>
      <path class="cls-19" d="M191.62,26.33l-1.58-.77s.62,1.49,1.58.77Z"/>
      <path class="cls-7" d="M213.77,67.34c-.82,4.78-1.32,9.61-1.49,14.46-3.88-5.38-8.28-15.13-8-19.68l9.49,5.22Z"/>
      <path class="cls-24" d="M131.05,52.67l-2-5.49-8.18,5.05s3,4.9,7.23,6.53l.93-.86c1.46-1.33,2.21-3.27,2.02-5.23Z"/>
      <path class="cls-24" d="M122.89,45.05l-2.6,2.12c-1.17.97-1.34,2.69-.4,3.88l.93,1.16,8.18-5.05-2.55-2.11c-1.03-.86-2.53-.86-3.56,0Z"/>
      <path class="cls-7" d="M187.89,145.99c9.7,15.49,14.1,36.27,14.76,39.65-2.43.15-4.72.27-6.86.34-1.11-13.64-3.95-27.08-8.46-40h.56Z"/>
      <path class="cls-21" d="M185.54,26.84c-.9,1.47-2,2.82-3.26,4,.63.63,1.5.96,2.39.9l.87-4.9Z"/>
      <path class="cls-3" d="M180.2,28.29l1.77.3c.12,0,.24,0,.36,0,1.03,0,1.91-.74,2.09-1.76l.25-1.44c.19-.4.61-.63,1.05-.57.43.09.75.45.79.89l-.24,1.44c-.1.55.03,1.12.35,1.58.32.47.82.78,1.38.87l4.44.77c.12,0,.24,0,.36,0,1.03,0,1.92-.75,2.09-1.77l.51-2.93s0-.05,0-.08c1.03.21,2.01.62,2.88,1.21l4.71,3.24.42-.62-4.71-3.24c-1-.68-2.14-1.15-3.34-1.36-.19-.83-.86-1.46-1.7-1.61l-4.44-.76c-1.16-.2-2.26.57-2.46,1.73l-.1.62c-.46-.55-1.24-.68-1.85-.32l.11-.61c.2-1.16-.57-2.26-1.73-2.46l-1.77-.31c-.56-.1-1.13.03-1.59.36-.46.33-.77.82-.87,1.38l-.51,2.93c-.23,1.16.53,2.28,1.69,2.51.02,0,.04,0,.06.01ZM186.86,27.29l.5-2.94c.11-.75.77-1.31,1.53-1.3.09,0,.17,0,.26,0l4.43.77c.83.14,1.39.93,1.25,1.76l-.51,2.93c-.14.83-.93,1.39-1.76,1.25l-4.44-.77c-.82-.14-1.38-.91-1.24-1.74,0,0,0-.02,0-.02l-.02.06ZM179.06,25.94l.5-2.93c.06-.41.29-.77.63-1,.25-.18.56-.28.87-.28h.27l1.76.31c.83.14,1.39.93,1.25,1.76l-.51,2.93c-.14.83-.92,1.39-1.75,1.25,0,0,0,0-.01,0l-1.77-.3c-.82-.15-1.37-.93-1.24-1.75h0Z"/>
      <path class="cls-19" d="M204.26,32.22c-1.54-.01-2.77-1.27-2.75-2.81,0-.21.03-.41.07-.61.55-2.44.65-5.75-1.64-8.38-4.15-4.79-4.31.92-15.34-7.59-1.57-1.21-2.68-7.85,6-5.23,0,0,11.63-4.42,14.7,5.23,0,0,11.19,4.66,0,19.39h-1.04Z"/>
      <path class="cls-24" d="M206.74,32.05c-.64,1.46-1.89,2.57-3.41,3.05-1.93.53-2.88-1.58-2.34-3.72.49-1.93,2.09-4.52,4-4.1s2.64,2.91,1.75,4.77Z"/>
      <path class="cls-6" d="M204.82,37.68l-1.54-3.22c-.13-.29-.47-.42-.77-.29-.13.06-.24.16-.29.29l-1.55,3.22c-.14.3-.01.65.28.78.08.04.16.05.25.06h3.09c.33,0,.59-.27.59-.59,0-.08-.02-.17-.06-.25Z"/>
      <rect class="cls-6" x="117.32" width="59.54" height="49.3"/>
      <rect class="cls-2" x="117.32" width="59.54" height="49.3"/>
      <path class="cls-24" d="M178.8,55.13l-2-5.49-8.18,5s3,4.9,7.23,6.53l.93-.86c1.44-1.32,2.19-3.23,2.02-5.18Z"/>
      <path class="cls-24" d="M170.67,47.51l-2.6,2.12c-1.18.97-1.37,2.7-.42,3.9l.93,1.16,8.18-5-2.56-2.12c-1.01-.86-2.49-.88-3.53-.06Z"/>
      <path class="cls-24" d="M201.7,58.78l-1.1,2.91c-.38,1-.76,2-1.16,3-.78,2-1.61,3.88-2.46,5.66-.44.89-.87,1.75-1.31,2.52-.37.66-.78,1.29-1.23,1.89-.11.13-.21.28-.3.43,0,0,.15,0,.69-.16.38-.08.77-.07,1.14.05.13.07,0,.08-.14,0-.61-.25-1.18-.59-1.69-1-.72-.58-1.41-1.2-2.07-1.85-1.42-1.37-2.8-3-4.19-4.62-2.73-3.31-5.42-6.93-8-10.46l-.07-.1c-1.12-1.49-3.24-1.79-4.73-.66-1.16.88-1.63,2.4-1.17,3.78,1.56,4.5,3.52,8.85,5.84,13,1.19,2.17,2.53,4.26,4,6.25.81,1.08,1.69,2.11,2.63,3.08,1.12,1.16,2.38,2.17,3.76,3,.94.56,1.95.99,3,1.28,1.47.41,3.02.46,4.51.14,1.34-.31,2.61-.86,3.74-1.64.8-.54,1.55-1.16,2.24-1.84,1.07-1.08,2.05-2.25,2.92-3.5.77-1.09,1.48-2.21,2.13-3.37,1.24-2.16,2.34-4.4,3.31-6.69.47-1.12.93-2.24,1.35-3.38s.8-2.23,1.19-3.51c1.11-3.56-.88-7.34-4.44-8.45-3.41-1.06-7.06.72-8.32,4.06l-.07.18Z"/>
      <path class="cls-6" d="M208.63,77.42l-12.67-6.25s3.2-22.66,15.25-17.89c11.68,4.62-2.58,24.14-2.58,24.14Z"/>
    </g>
  </g>
  <g id="Camada_2" data-name="Camada 2">
    <path class="cls-3" d="M151.56,19.99c3.54-1.75,7.08-3.5,10.62-5.25-.32-.75-.83-1.77-1.63-2.85-3.41-4.61-8.63-5.71-9.93-5.94-1.6-.29-5.86-.8-10.38,1.55-5.16,2.68-7.13,7.28-7.65,8.63-.33.87-2.68,7.27.85,13.75,2.61,4.8,6.85,6.71,7.93,7.16.97.41,4.99,1.97,9.93.81.95-.22,3.24-.85,5.66-2.56.8-.57,3.09-2.29,4.84-5.37,1.29-2.26,1.71-4.24,1.83-4.84.24-1.23.29-2.3.28-3.09-5.48.01-10.96.03-16.44.04,2.58,1.44,5.15,2.88,7.73,4.31-.24.61-.56,1.26-.98,1.91-1.97,3.08-5.01,4.39-6.55,4.92-.19-.08-.46-.21-.77-.37-1.11-.56-3.27-1.64-4.92-3.54-.56-.64-2.47-2.9-2.69-6.31-.05-.86-.16-2.98,1.1-5.21.34-.61,1.32-2.27,3.38-3.34,2.66-1.37,5.23-.75,5.9-.57,2.77.72,4.3,2.61,4.76,3.21-.96.98-1.93,1.95-2.89,2.93Z"/>
    <g id="Camada_4" data-name="Camada 4">
      <path class="cls-29" d="M261.7,85.12c-.42-2.13-1.89-3.43-2.37-3.85-1.08-.93-2.07-1.27-4-1.93-.59-.2-2.25-.74-4.59-1.04-2.54-.32-3.8-.49-5.19,0-.49.17-1.57,1.01-3.7,2.67-2.6,2.02-2.86,2.3-3.11,2.81-.35.72-.44,1.82-.59,4-.09,1.2-.14,1.95-.15,2.96-.02,3.4-.03,5.5,1.04,7.56.97,1.89,2.41,2.9,3.56,3.7.54.38,3.31,2.27,7.41,2.52.99.06,2.83.15,5.04-.59,1.02-.34,2.91-1,4.59-2.81.56-.61,2.2-2.41,2.52-5.04.26-2.13-.48-3.8,0-4,.37-.15,1.15.69,1.04.89-.17.3-2.27-1.02-5.78-1.78-1.34-.29-4.26-.92-4.74,0-.35.68.76,1.93.89,2.07,1.22,1.37,2.39,1.03,2.96,2.07.54.99.1,2.43-.59,3.26-.67.8-1.53.98-3.26,1.33-2.29.47-4.02.22-4.44.15-1.44-.23-2.3-.37-3.11-1.04-1.25-1.02-1.49-2.54-1.78-4.3-.36-2.19-.04-3.91.15-4.89.37-1.9.58-2.98,1.48-4,1.21-1.36,2.85-1.68,4.15-1.93,1.43-.27,3.11-.6,4.89.3,2.44,1.23,3.59,4,3.26,4.3-.28.25-1.92-1.02-1.78-1.33.22-.5,4.76,1.9,6.07.44.53-.59.34-1.57.15-2.52Z"/>
    </g>
    <g id="Camada_5" data-name="Camada 5">
      <path class="cls-30" d="M69.15,104.01c-.06,1.1,5.54,1.21,6.22,3.78.36,1.34-.79,2.73-1.56,3.67-1.83,2.23-4.35,2.75-5.22,2.89-.7.11-2.42.35-4.33-.44-2.47-1.03-3.61-3.1-4.22-4.22-1.59-2.9-1.42-5.67-1.33-6.89.15-2,.31-4.25,2-5.78,1.09-.99,2.47-1.18,5.22-1.56,2.5-.34,4.82-.63,6.89.67.52.32,1.69,1.06,1.67,2-.04,1.58-3.46,2.39-3.33,2.78.12.37,3.43.01,6.67-1.78,1.6-.88,2.91-1.61,3.11-2.89.27-1.73-1.68-3.31-2.67-4.11-1.78-1.44-3.54-1.92-5.56-2.44-3.5-.91-6.31-.82-7.11-.78-2.51.12-4.66.23-7,1.56-2.43,1.38-3.69,3.3-4.67,4.78-.76,1.16-2.22,3.44-2.67,6.78-.19,1.45-.45,3.43.33,5.67.66,1.88,1.51,2.39,1.89,4.44.36,2-.31,2.24.11,3.44.92,2.64,4.87,3.6,7,4.11,2.03.49,3.58.53,5.33.56,4.2.07,6.66.11,9.33-1.22,2.62-1.31,4.01-3.23,5.78-5.67,2.69-3.71,2.86-6.14,2.89-6.89.03-.98.09-2.54-.89-3.33-.94-.76-1.88-.05-4.67,0-2.95.05-3.55-.72-6.11-.33-.32.05-3.07.46-3.11,1.22Z"/>
    </g>
  </g>
</svg>